<?xml version="1.0" encoding="UTF-8"?>
<svg enable-background="new 0 0 300 300" viewBox="0 0 300 300" xmlns="http://www.w3.org/2000/svg">
 <path d="m127.78 21.705c7.92-4.349 16.98-5.913 25.839-6.947-1.907 3.177-5.604 4.436-8.431 6.604-8.379 5.952-17.55 11.424-23.443 20.097-4.169 6.163-5.33 15.074-0.457 21.194 6.685 8.163 18.734 9.37 25.084 17.943 2.224 3.311 4.266 8.341 1.221 11.776-3.753 3.479-9.498 2.696-14.113 1.87-10.112-2.727-18.317-10.369-23.854-19.032-5.228-9.015-8.655-20.26-4.885-30.448 4.191-10.413 13.381-17.883 23.039-23.057z" fill="none" stroke="#000" stroke-miterlimit="10" stroke-width=".1"/>
 <path d="m127.78 21.705c7.92-4.349 16.98-5.913 25.839-6.947-1.907 3.177-5.604 4.436-8.431 6.604-8.379 5.952-17.55 11.424-23.443 20.097-4.169 6.163-5.33 15.074-0.457 21.194 6.685 8.163 18.734 9.37 25.084 17.943 2.224 3.311 4.266 8.341 1.221 11.776-3.753 3.479-9.498 2.696-14.113 1.87-10.112-2.727-18.317-10.369-23.854-19.032-5.228-9.015-8.655-20.26-4.885-30.448 4.191-10.413 13.381-17.883 23.039-23.057z"/>
 <path d="m186.6 47.891c7.241-0.695 14.893 2.288 19.437 8.043 3.188 3.603 4.611 8.394 5.119 13.093-0.221 7.185-3.875 14.204-9.899 18.207-5.751 3.659-13.202 4.824-19.653 2.396-9.708-3.023-16.348-13.774-14.513-23.798 1.739-9.444 9.96-16.975 19.509-17.941z" fill="none" stroke="#000" stroke-miterlimit="10" stroke-width=".1"/>
 <path d="m186.6 47.891c7.241-0.695 14.893 2.288 19.437 8.043 3.188 3.603 4.611 8.394 5.119 13.093-0.221 7.185-3.875 14.204-9.899 18.207-5.751 3.659-13.202 4.824-19.653 2.396-9.708-3.023-16.348-13.774-14.513-23.798 1.739-9.444 9.96-16.975 19.509-17.941z"/>
 <path d="m196.76,113.553c1.697-2.104 4.39-4.093 7.246-3.65 5.257.188 9.888,3.028 14.166,5.83 8.385,5.823 16.387,12.491 22.389,20.824 2.162,3.396 4.459,7.446 3.349,11.607-1.189,5.79-5.672,10.384-10.729,13.137-7.425,4.064-15.671,6.349-23.964,7.822-8.801,1.686-17.809,3.539-26.799,2.426 2.709-2.1 6.342-2.165 9.301-3.785 7.191-3.77 14.353-7.625 21.254-11.91 4.672-2.829 9.348-5.825 13.117-9.827-7.133-8.46-18.026-12.479-25.127-20.984-2.619-3.095-6.02-7.199-4.203-11.49z" fill="none" stroke="#000" stroke-miterlimit="10" stroke-width=".1"/>
 <path d="m196.76,113.553c1.697-2.104 4.39-4.093 7.246-3.65 5.257.188 9.888,3.028 14.166,5.83 8.385,5.823 16.387,12.491 22.389,20.824 2.162,3.396 4.459,7.446 3.349,11.607-1.189,5.79-5.672,10.384-10.729,13.137-7.425,4.064-15.671,6.349-23.964,7.822-8.801,1.686-17.809,3.539-26.799,2.426 2.709-2.1 6.342-2.165 9.301-3.785 7.191-3.77 14.353-7.625 21.254-11.91 4.672-2.829 9.348-5.825 13.117-9.827-7.133-8.46-18.026-12.479-25.127-20.984-2.619-3.095-6.02-7.199-4.203-11.49z"/>
 <path d="m125.655,144.858c2.893-.381 5.44,1.408 7.99,2.488 2.365.755 2.826,3.543 2.73,5.705-.554,4.985-2.682,9.682-5.447,13.821-8.06,12.334-18.398,22.985-29.227,32.9-3.479,3.484-7.556,7.024-12.69,7.438-3.56-.01-7.921-1-9.503-4.604s.023-7.479 1.307-10.89c2.981-7.451 8.221-13.59 12.904-19.99 5.831-7.724 12.055-15.321 19.682-21.351 3.526-2.838 7.715-4.983 12.254-5.517z" fill="none" stroke="#000" stroke-miterlimit="10" stroke-width=".1"/>
 <path d="m125.655,144.858c2.893-.381 5.44,1.408 7.99,2.488 2.365.755 2.826,3.543 2.73,5.705-.554,4.985-2.682,9.682-5.447,13.821-8.06,12.334-18.398,22.985-29.227,32.9-3.479,3.484-7.556,7.024-12.69,7.438-3.56-.01-7.921-1-9.503-4.604s.023-7.479 1.307-10.89c2.981-7.451 8.221-13.59 12.904-19.99 5.831-7.724 12.055-15.321 19.682-21.351 3.526-2.838 7.715-4.983 12.254-5.517z"/>
 <path d="m146.13,165.085c4.332-1.841 9.53-1.72 13.55.835 3.26,3.134 3.813,8.176 2.476,12.341-2.816,9.43-8.724,17.523-14.688,25.203-11.61,14.962-25.938,27.435-39.243,40.813-9.626,9.041-18.567,18.827-28.787,27.221-7.175,6.126-14.142,12.523-20.256,19.729-1.052,1.388-2.618,2.195-4.192,2.848 1.324-4.801 4.503-8.82 6.646-13.271 15.683-24.698 31.051-49.598 47.161-74.022 5.127-7.49 10.256-14.984 15.753-22.209 5.679-7.872 12.133-16.075 21.58-19.488z" fill="none" stroke="#000" stroke-miterlimit="10" stroke-width=".1"/>
 <path d="m146.13,165.085c4.332-1.841 9.53-1.72 13.55.835 3.26,3.134 3.813,8.176 2.476,12.341-2.816,9.43-8.724,17.523-14.688,25.203-11.61,14.962-25.938,27.435-39.243,40.813-9.626,9.041-18.567,18.827-28.787,27.221-7.175,6.126-14.142,12.523-20.256,19.729-1.052,1.388-2.618,2.195-4.192,2.848 1.324-4.801 4.503-8.82 6.646-13.271 15.683-24.698 31.051-49.598 47.161-74.022 5.127-7.49 10.256-14.984 15.753-22.209 5.679-7.872 12.133-16.075 21.58-19.488z"/>
 <path d="m169.02 7.917c8.479 0 15.354 6.874 15.354 15.354s-6.874 15.354-15.354 15.354-15.354-6.874-15.354-15.354 6.874-15.354 15.354-15.354m0 6c-5.158 0-9.354 4.196-9.354 9.354s4.196 9.354 9.354 9.354 9.354-4.196 9.354-9.354-4.196-9.354-9.354-9.354z"/>
</svg>
